<svg xmlns="http://www.w3.org/2000/svg" viewBox="0 0 106.77 109.52"><defs><style>.cls-1{fill:#fff;}</style></defs><g id="Warstwa_2" data-name="Warstwa 2"><g id="Warstwa_1-2" data-name="Warstwa 1"><path d="M0,55.82A53.7,53.7,0,0,1,47.12,2.58,50.91,50.91,0,0,1,71.2,5.28a2.65,2.65,0,0,0,3.33-.61A15.51,15.51,0,0,1,95.46,3.53a15.8,15.8,0,0,1,3.35,20.74,2.69,2.69,0,0,0-.09,3.36,53.65,53.65,0,0,1-36.81,81.15c-28.4,5-56.88-15.61-61-44.15C.45,61.71.28,58.76,0,55.82ZM92.22,30.51a46.38,46.38,0,0,1-6,1.11c-9.35.47-16.7-7.23-16.27-17,.06-1.35.16-2.36-1.55-2.9A45.82,45.82,0,0,0,46.16,9.9C21.32,14.37,5.25,35.52,7.49,60.69c2.37,26.77,28.57,46.24,54.85,40.76A46.3,46.3,0,0,0,99.59,58.62,45.4,45.4,0,0,0,92.22,30.51Z"/><path class="cls-1" d="M92.22,30.51a45.4,45.4,0,0,1,7.37,28.11,46.3,46.3,0,0,1-37.25,42.83c-26.28,5.48-52.48-14-54.85-40.76C5.25,35.52,21.32,14.37,46.16,9.9A45.82,45.82,0,0,1,68.4,11.74c1.71.54,1.61,1.55,1.55,2.9-.43,9.75,6.92,17.45,16.27,17A46.38,46.38,0,0,0,92.22,30.51Zm-38.85-2.8a28.13,28.13,0,1,0,28.06,27.8A28.09,28.09,0,0,0,53.37,27.71Z"/><path d="M53.37,27.71A28.13,28.13,0,1,1,25.43,55.89,28.06,28.06,0,0,1,53.37,27.71Z"/></g></g></svg>