<svg xmlns="http://www.w3.org/2000/svg" viewBox="0 0 33.76 9.9"><g id="Warstwa_2" data-name="Warstwa 2"><g id="Warstwa_1-2" data-name="Warstwa 1"><path d="M8.72,9.29A.79.79,0,0,1,8,9a.82.82,0,0,1,0-.83l3.07-6.73A1.43,1.43,0,0,1,11.54.8a1,1,0,0,1,.61-.19,1,1,0,0,1,.61.19,1.33,1.33,0,0,1,.44.59l3.1,6.73a.86.86,0,0,1,0,.84.75.75,0,0,1-.68.33.93.93,0,0,1-.63-.2,1.42,1.42,0,0,1-.39-.6l-.5-1.15H10.17L9.68,8.49a1.69,1.69,0,0,1-.39.61A.83.83,0,0,1,8.72,9.29Zm3.4-6.59L10.79,5.89H13.5L12.15,2.7Z"/><path d="M15.61,9.29A.9.9,0,0,1,14.92,9a1,1,0,0,1-.24-.7V1.56a.94.94,0,0,1,.24-.7.9.9,0,0,1,.69-.25.83.83,0,0,1,.93,1V4.4h0l3.19-3.33a1.42,1.42,0,0,1,.43-.33,1.07,1.07,0,0,1,.51-.12.75.75,0,0,1,.6.22.66.66,0,0,1,.17.51.88.88,0,0,1-.27.53L18.37,4.76l3,3.18a.9.9,0,0,1,.28.61.68.68,0,0,1-.2.53.85.85,0,0,1-.62.21,1,1,0,0,1-.56-.15,2.39,2.39,0,0,1-.46-.42L16.56,5.31h0v3a1,1,0,0,1-.24.7A.88.88,0,0,1,15.61,9.29Z"/><path d="M5.27,7.86.65,6a1,1,0,0,1,0-1.82l4.62-1.9a.57.57,0,0,1,.51,0,.6.6,0,0,1,.3.36.64.64,0,0,1,0,.47.6.6,0,0,1-.37.36l-4,1.62,4,1.63A.59.59,0,0,1,6.08,7a.66.66,0,0,1,0,.48.56.56,0,0,1-.3.34A.57.57,0,0,1,5.27,7.86Z"/><path d="M24.47,9.39a.65.65,0,0,1-.36.44.78.78,0,0,1-.52,0,.72.72,0,0,1-.42-.3.66.66,0,0,1,0-.59L25.85.51a.71.71,0,0,1,.37-.45.78.78,0,0,1,.52,0,.72.72,0,0,1,.42.3.66.66,0,0,1,0,.59Z"/><path d="M28.5,7.86a.59.59,0,0,1-.52,0,.56.56,0,0,1-.3-.34.66.66,0,0,1,0-.48.59.59,0,0,1,.37-.35l4-1.63-4-1.62a.6.6,0,0,1-.37-.36.64.64,0,0,1,0-.47.6.6,0,0,1,.3-.36.59.59,0,0,1,.52,0l4.61,1.9a.92.92,0,0,1,.65.9.92.92,0,0,1-.65.92Z"/></g></g></svg>